<?xml version="1.0" encoding="iso-8859-1"?>
<svg xmlns="http://www.w3.org/2000/svg" xmlns:xlink="http://www.w3.org/1999/xlink" version="1.1" viewBox="0 0 44 44" enable-background="new 0 0 44 44" width="512px" height="512px">
  <path d="m22,0c-12.2,0-22,9.8-22,22s9.8,22 22,22 22-9.8 22-22-9.8-22-22-22zm9.7,19.7l-1.4,1.4c-0.4,0.4-1,0.4-1.4,0l-4-4c-0.3-0.3-0.9-0.1-0.9,0.4v16.5c0,0.6-0.4,1-1,1h-2c-0.6,0-1-0.4-1-1v-16.6c0-0.4-0.5-0.7-0.9-0.4l-4,4c-0.4,0.4-1,0.4-1.4,0l-1.4-1.4c-0.2-0.2-0.3-0.4-0.3-0.7s0.1-0.5 0.3-0.7l9-9c0.2-0.2 0.5-0.3 0.7-0.3 0.3,0 0.5,0.1 0.7,0.3l9,9c0.2,0.2 0.3,0.4 0.3,0.7 0,0.4-0.1,0.6-0.3,0.8z" fill="#42b574"/>
</svg>
