<svg xmlns="http://www.w3.org/2000/svg" width="512" height="512" viewBox="0 0 109.902 109.902"><path d="M106.654 15.087H3.252A3.255 3.255 0 0 0 0 18.338v57.297l.002.004v2.863c0 1.059.857 1.916 1.914 1.916h42.32c-.172 3.768-1.004 11.33-4.916 12.988 0 0-1.518 1.408 2.73 1.408h24.565c4.248 0 2.73-1.408 2.73-1.408-3.912-1.658-4.746-9.221-4.916-12.988h43.594c1.061 0 1.871-.857 1.871-1.916v-2.777c0-.031.008-.06.008-.09V18.338a3.25 3.25 0 0 0-3.248-3.251zM52.869 79.786a1.619 1.619 0 1 1 3.237 0 1.619 1.619 0 0 1-3.237 0zm53.785-3.795H3.252V18.594a.46.46 0 0 1 .459-.461h102.482c.254 0 .461.207.461.461v57.397z" fill="#1b1d1f"/></svg>